# xmcd
#
# Track frame offsets: 
#        150
#        18036
#        38369
#        53396
#        67384
#        82697
#        100782
#        118258
#        135156
#        149475
#        167322
#        180267
#        196039
#        209352
#        230135
#        248079
#        267944
#        281039
#
# Disc length: 3963 seconds
#
# Revision: 0
# Processed by: cddbd v1.5.2PL0 Copyright (c) Steve Scherf et al.
# Submitted via: ExactAudioCopy v0.99pb3
#
DISCID=e70f7912
DTITLE=Various Artist - Ultimate Country Driving Songs[CD1]
DYEAR=2011
DGENRE=Country
TTITLE0=1. McAlister Kemp - White Line
TTITLE1=2. Steve Earle - Copperhead Road
TTITLE2=3. Troy Cassar-Daley - V8 Town
TTITLE3=4. Shea Fisher - Getaway Heart
TTITLE4=5. Phil Vassar - Little Red Rodeo
TTITLE5=6. Doc Walker - Driving With The Breaks On
TTITLE6=7. Clint Black - Nothin' But The Tail Lights
TTITLE7=8. Emerson Drive - I Love This Road
TTITLE8=9. Miranda Lambert - Gunpowder and Lead
TTITLE9=10. Alan Jackson - Chattahoochee
TTITLE10=11. Sugarland - Down The Mississippi (Up To No Good)
TTITLE11=12. Jetty Road - Million Miles
TTITLE12=13. Shooter Jennings - Steady At The Wheel
TTITLE13=14. Katrina Elam - No End In Sight
TTITLE14=15. Talia Whittmann - Nothin' But The Wheel
TTITLE15=16. Catherine Britt - Drive In Movie
TTITLE16=17. Johnny Cash - The General Lee
TTITLE17=18. Jake Nickolai - 3 Days Drivin'
EXTD=
EXTT0=
EXTT1=
EXTT2=
EXTT3=
EXTT4=
EXTT5=
EXTT6=
EXTT7=
EXTT8=
EXTT9=
EXTT10=
EXTT11=
EXTT12=
EXTT13=
EXTT14=
EXTT15=
EXTT16=
EXTT17=
PLAYORDER=
